:SAMPLES-PER-SECOND 30
:FULLY-SPECIFIED
:DEGREES
31
root  76.3882 39.3363 27.4575 -100.311 -88.0648 100.225
RightUpLeg  2.74835 -9.7079 -3.56726
RightLeg  14.2107 -2.12318 3.01988
RightFoot  -16.7179 -0.233715 -2.56966
RightToes  5.82063e-011 0 -3.6325e-017
Spine  4.92812 2.30234 14.7663
Spine1  0.701165 5.17107 -11.9472
HEad  -75.6939 -3.50294 7.42468
LeftShoulder1  15.7428 -21.5411 -55.0125
LeftArm  -119.559 43.3938 -80.6959
LeftForeArm  -126.85 -48.4316 -172.159
LeftHand  -0.244104 0.0205437 5.32207
RightShoulder  6.19382 10.019 39.6725
RightArm  -9.14113 -24.5376 33.5562
RightForeArm  -3.26466 16.9362 5.61694
RightHand  -0.205765 -3.48114 -11.9219
LeftUpLeg  -22.5812 6.94533 -1.09016
LeftLeg  42.452 4.78137 5.05426
LeftFoot  -2.99822 0.428181 -5.61061
LeftToes  1.2005e-010 6.1915e-012 3.32694e-011
32
root  75.8662 39.37 27.3358 -95.2984 -87.1488 95.826
RightUpLeg  3.40721 -9.70304 -4.44736
RightLeg  13.2866 -2.10985 3.0841
RightFoot  -17.0023 -0.238737 -2.50231
RightToes  5.82063e-011 0 -3.6325e-017
Spine  2.89727 2.82168 6.994
Spine1  4.00532 3.35532 -0.716498
HEad  -74.7413 -5.12156 5.08241
LeftShoulder1  16.9266 -17.1331 -69.1458
LeftArm  -114.235 42.9958 -66.3952
LeftForeArm  -131.379 -47.9356 -172.155
LeftHand  -0.244104 0.0205437 5.32207
RightShoulder  5.37921 10.2202 33.2573
RightArm  -8.42466 -20.2193 36.2659
RightForeArm  -2.43741 18.3215 5.35756
RightHand  -0.258132 -3.2208 -13.3326
LeftUpLeg  -24.0217 7.85061 -2.62776
LeftLeg  37.7238 5.1188 4.58598
LeftFoot  -3.53513 0.411768 -5.71943
LeftToes  1.2005e-010 6.1915e-012 3.32694e-011
33
root  75.3161 39.3922 27.2393 -91.764 -86.4434 92.9993
RightUpLeg  4.13806 -9.71939 -5.17407
RightLeg  12.1463 -2.16123 3.2555
RightFoot  -17.1587 -0.244216 -2.52261
RightToes  5.82063e-011 0 -3.6325e-017
Spine  3.13004 3.1351 6.79733
Spine1  2.48209 3.84188 -2.30342
HEad  -71.6782 -6.17501 4.9382
LeftShoulder1  14.9501 -17.3169 -62.0031
LeftArm  -115.971 44.283 -73.9366
LeftForeArm  -133.002 -47.3879 -172.264
LeftHand  -0.244104 0.0205437 5.32207
RightShoulder  5.55851 10.3236 34.2313
RightArm  -7.71174 -18.7411 36.3028
RightForeArm  -4.9908 21.0295 5.18752
RightHand  -0.257798 -3.18372 -13.0638
LeftUpLeg  -25.1539 8.86583 -4.08896
LeftLeg  31.5991 5.81222 4.19284
LeftFoot  -3.47496 0.368574 -5.05682
LeftToes  1.2005e-010 6.1915e-012 3.32694e-011
34
root  74.7172 39.3716 27.1761 -85.212 -86.1301 87.0282
RightUpLeg  5.11843 -9.61272 -5.51998
RightLeg  11.0635 -2.46521 3.40662
RightFoot  -17.4336 -0.230107 -2.11392
RightToes  5.82063e-011 0 -3.6325e-017
Spine  2.99704 2.80726 6.94771
Spine1  3.16369 3.89425 -4.2739
HEad  -70.0004 -8.47779 6.24952
LeftShoulder1  11.7245 -15.0351 -54.2156
LeftArm  -113.562 44.074 -79.5011
LeftForeArm  -133.276 -46.6203 -172.49
LeftHand  -0.244104 0.0205437 5.32207
RightShoulder  5.6817 10.0472 36.0334
RightArm  -6.62066 -14.7146 36.3246
RightForeArm  -7.60953 23.3759 5.37314
RightHand  -0.328917 -2.52149 -12.9873
LeftUpLeg  -25.8493 9.81748 -5.28819
LeftLeg  24.8201 5.30458 3.05237
LeftFoot  -3.18891 0.353205 -4.68485
LeftToes  1.2005e-010 6.1915e-012 3.32694e-011
35
root  74.044 39.2957 27.1464 -78.3015 -86.0998 80.5728
RightUpLeg  6.25032 -9.45772 -5.55473
RightLeg  10.225 -2.76197 3.49322
RightFoot  -17.8797 -0.200474 -1.39207
RightToes  5.82063e-011 0 -3.6325e-017
Spine  1.19455 1.19506 6.95965
Spine1  9.88413 3.11282 -6.99694
HEad  -72.9897 -11.3347 8.59325
LeftShoulder1  6.13869 -9.1835 -42.6538
LeftArm  -105.421 40.1752 -84.1714
LeftForeArm  -132.733 -45.7792 -172.765
LeftHand  -0.244104 0.0205437 5.32207
RightShoulder  5.46415 8.47533 39.4584
RightArm  -2.63658 -4.05602 36.8551
RightForeArm  -8.36791 24.7223 5.709
RightHand  -0.406378 -1.93146 -13.4714
LeftUpLeg  -26.1926 10.58 -6.19275
LeftLeg  18.0556 3.55478 1.50139
LeftFoot  -2.40106 0.355312 -4.36791
LeftToes  1.2005e-010 6.1915e-012 3.32694e-011
36
root  73.277 39.1876 27.1478 -76.3404 -86.086 78.9702
RightUpLeg  7.51476 -9.41421 -5.69438
RightLeg  9.54125 -2.77963 3.55023
RightFoot  -18.3037 -0.19282 -1.12988
RightToes  5.82063e-011 0 -3.6325e-017
Spine  0.514701 1.99704 6.88576
Spine1  9.43757 3.83536 -6.91962
HEad  -52.9374 -15.2055 2.21889
LeftShoulder1  6.48602 -9.63085 -42.9017
LeftArm  -105.148 40.8193 -84.8098
LeftForeArm  -131.977 -45.3466 -172.921
LeftHand  -0.244104 0.0205437 5.32207
RightShoulder  5.77566 9.1526 39.5222
RightArm  -2.58364 -2.88994 36.6181
RightForeArm  -7.47162 26.4167 6.05904
RightHand  -0.376278 -2.21517 -13.5188
LeftUpLeg  -26.1129 9.10619 -5.74607
LeftLeg  11.87 4.22983 -0.377973
LeftFoot  -0.933052 0.351121 -3.79446
LeftToes  1.2005e-010 6.1915e-012 3.32694e-011
37
root  72.4083 39.0416 27.1841 -75.8926 -85.9692 78.6813
RightUpLeg  9.07808 -9.58134 -6.15214
RightLeg  9.05515 -2.66169 3.64239
RightFoot  -18.8346 -0.207197 -1.219
RightToes  5.82063e-011 0 -3.6325e-017
Spine  0.552737 2.33553 6.72282
Spine1  9.14528 4.28063 -7.35642
HEad  1.52685 -3.05512 -9.26954
LeftShoulder1  6.11975 -9.09161 -42.1725
LeftArm  -103.966 41.3426 -85.0486
LeftForeArm  -131.595 -45.2451 -172.965
LeftHand  -0.244104 0.0205437 5.32207
RightShoulder  5.95229 9.44632 39.8342
RightArm  -1.60585 -0.825243 36.7276
RightForeArm  -6.82937 27.4705 6.27738
RightHand  -0.344353 -2.34998 -12.8966
LeftUpLeg  -25.7186 4.02891 -3.30982
LeftLeg  7.06897 9.98483 -2.72577
LeftFoot  0.370985 0.361354 -3.53979
LeftToes  1.2005e-010 6.1915e-012 3.32694e-011
38
root  71.441 38.8484 27.2725 -72.8635 -85.8949 75.5622
RightUpLeg  11.0139 -9.88846 -6.79486
RightLeg  8.82603 -2.25819 3.82935
RightFoot  -19.5551 -0.17357 -0.585388
RightToes  5.82063e-011 0 -3.6325e-017
Spine  0.963945 2.47389 6.76113
Spine1  8.66042 4.58404 -7.98788
HEad  -3.48224 -2.46523 -5.17448
LeftShoulder1  6.27507 -9.32441 -42.4754
LeftArm  -103.9 41.8815 -84.4161
LeftForeArm  -131.147 -45.2551 -172.978
LeftHand  -0.244104 0.0205437 5.32207
RightShoulder  6.12475 9.7301 40.1355
RightArm  -0.64725 0.608227 36.7715
RightForeArm  -5.8165 28.4106 6.45372
RightHand  -0.374259 -1.90388 -12.2823
LeftUpLeg  -25.6833 2.06458 -2.63965
LeftLeg  4.88128 13.6352 -3.9018
LeftFoot  0.836975 0.360711 -3.42066
LeftToes  1.2005e-010 6.1915e-012 3.32694e-011
